<svg xmlns="http://www.w3.org/2000/svg" xmlns:xlink="http://www.w3.org/1999/xlink" width="500" zoomAndPan="magnify" viewBox="0 0 375 374.999991" height="500" preserveAspectRatio="xMidYMid meet" version="1.2"><defs><clipPath id="07dea78afd"><rect x="0" width="197" y="0" height="77"/></clipPath></defs><g id="03dc5d2c6c"><g transform="matrix(1,0,0,1,120,132)"><g clip-path="url(#07dea78afd)"><g style="fill:#000000;fill-opacity:1;"><g transform="translate(0.244611, 58.182054)"><path style="stroke:none" d="M 17.03125 -29.421875 C 21.0625 -29.460938 24.523438 -28.054688 27.421875 -25.203125 C 30.316406 -22.335938 31.785156 -18.867188 31.828125 -14.796875 C 31.867188 -10.765625 30.457031 -7.300781 27.59375 -4.40625 C 24.738281 -1.507812 21.273438 -0.0390625 17.203125 0 C 13.890625 0 11.394531 -1.046875 9.71875 -3.140625 L 9.71875 10.96875 L 1.71875 10.96875 L 1.71875 -29.375 L 9.71875 -29.375 L 9.71875 -26.28125 C 11.28125 -28.300781 13.71875 -29.347656 17.03125 -29.421875 Z M 22.28125 -9.59375 C 23.726562 -11.039062 24.414062 -12.757812 24.34375 -14.75 C 24.34375 -16.757812 23.640625 -18.472656 22.234375 -19.890625 C 20.785156 -21.253906 19.066406 -21.9375 17.078125 -21.9375 C 15.066406 -21.9375 13.351562 -21.234375 11.9375 -19.828125 C 10.53125 -18.335938 9.828125 -16.625 9.828125 -14.6875 C 9.898438 -12.625 10.625 -10.910156 12 -9.546875 C 13.40625 -8.128906 15.117188 -7.421875 17.140625 -7.421875 C 19.203125 -7.503906 20.914062 -8.226562 22.28125 -9.59375 Z M 22.28125 -9.59375 "/></g></g><g style="fill:#000000;fill-opacity:1;"><g transform="translate(32.988184, 58.182054)"><path style="stroke:none" d="M 9.71875 -39.71875 L 9.71875 0 L 1.71875 0 L 1.71875 -39.71875 Z M 9.71875 -39.71875 "/></g></g><g style="fill:#000000;fill-opacity:1;"><g transform="translate(44.41703, 58.182054)"><path style="stroke:none" d="M 22.859375 -29.546875 L 30.859375 -29.546875 L 30.859375 0 L 22.859375 0 L 22.859375 -3.3125 C 21.222656 -1.175781 18.742188 -0.109375 15.421875 -0.109375 C 11.390625 -0.078125 7.925781 -1.488281 5.03125 -4.34375 C 2.132812 -7.195312 0.664062 -10.664062 0.625 -14.75 C 0.59375 -18.78125 2.003906 -22.242188 4.859375 -25.140625 C 7.710938 -28.035156 11.175781 -29.503906 15.25 -29.546875 C 18.601562 -29.546875 21.140625 -28.457031 22.859375 -26.28125 Z M 20.453125 -9.71875 C 21.867188 -11.125 22.578125 -12.835938 22.578125 -14.859375 C 22.578125 -16.910156 21.851562 -18.625 20.40625 -20 C 18.957031 -21.445312 17.257812 -22.132812 15.3125 -22.0625 C 13.289062 -22.0625 11.578125 -21.351562 10.171875 -19.9375 C 8.765625 -18.53125 8.0625 -16.816406 8.0625 -14.796875 C 8.0625 -12.816406 8.785156 -11.101562 10.234375 -9.65625 C 11.640625 -8.25 13.351562 -7.546875 15.375 -7.546875 C 17.425781 -7.617188 19.117188 -8.34375 20.453125 -9.71875 Z M 20.453125 -9.71875 "/></g></g><g style="fill:#000000;fill-opacity:1;"><g transform="translate(76.989211, 58.182054)"><path style="stroke:none" d="M 16.34375 -29.3125 C 20.53125 -29.65625 23.992188 -28.570312 26.734375 -26.0625 C 29.671875 -23.351562 31.140625 -19.5625 31.140625 -14.6875 L 31.140625 0 L 23.71875 0 L 23.71875 -14.515625 L 23.65625 -14.515625 L 23.65625 -14.625 C 23.65625 -16.644531 22.953125 -18.359375 21.546875 -19.765625 C 20.128906 -21.179688 18.414062 -21.890625 16.40625 -21.890625 C 14.34375 -21.804688 12.625 -21.082031 11.25 -19.71875 C 9.800781 -18.269531 9.117188 -16.554688 9.203125 -14.578125 L 9.203125 -14.515625 L 9.140625 -14.515625 L 9.140625 0 L 1.140625 0 L 1.140625 -29.546875 L 9.140625 -29.546875 L 9.140625 -25.71875 C 10.929688 -27.84375 13.332031 -29.039062 16.34375 -29.3125 Z M 16.34375 -29.3125 "/></g></g><g style="fill:#000000;fill-opacity:1;"><g transform="translate(109.275665, 58.182054)"><path style="stroke:none" d="M 22.859375 -29.546875 L 30.859375 -29.546875 L 30.859375 0 L 22.859375 0 L 22.859375 -3.3125 C 21.222656 -1.175781 18.742188 -0.109375 15.421875 -0.109375 C 11.390625 -0.078125 7.925781 -1.488281 5.03125 -4.34375 C 2.132812 -7.195312 0.664062 -10.664062 0.625 -14.75 C 0.59375 -18.78125 2.003906 -22.242188 4.859375 -25.140625 C 7.710938 -28.035156 11.175781 -29.503906 15.25 -29.546875 C 18.601562 -29.546875 21.140625 -28.457031 22.859375 -26.28125 Z M 20.453125 -9.71875 C 21.867188 -11.125 22.578125 -12.835938 22.578125 -14.859375 C 22.578125 -16.910156 21.851562 -18.625 20.40625 -20 C 18.957031 -21.445312 17.257812 -22.132812 15.3125 -22.0625 C 13.289062 -22.0625 11.578125 -21.351562 10.171875 -19.9375 C 8.765625 -18.53125 8.0625 -16.816406 8.0625 -14.796875 C 8.0625 -12.816406 8.785156 -11.101562 10.234375 -9.65625 C 11.640625 -8.25 13.351562 -7.546875 15.375 -7.546875 C 17.425781 -7.617188 19.117188 -8.34375 20.453125 -9.71875 Z M 20.453125 -9.71875 "/></g></g><g style="fill:#000000;fill-opacity:1;"><g transform="translate(141.847845, 58.182054)"><path style="stroke:none" d="M 1.71875 -29.546875 L 9.140625 -29.546875 L 9.140625 -14.6875 C 9.140625 -14.113281 9.234375 -13.46875 9.421875 -12.75 C 9.648438 -11.863281 9.992188 -11.0625 10.453125 -10.34375 C 11.710938 -8.4375 13.503906 -7.484375 15.828125 -7.484375 C 18.378906 -7.484375 20.226562 -8.457031 21.375 -10.40625 C 21.789062 -11.082031 22.09375 -11.878906 22.28125 -12.796875 C 22.4375 -13.441406 22.515625 -14.09375 22.515625 -14.75 L 22.515625 -29.546875 L 30.515625 -29.546875 L 30.515625 0 L 22.515625 0 L 22.515625 -3.078125 C 20.648438 -1.023438 18.25 0 15.3125 0 C 11.539062 0.0390625 8.34375 -1.3125 5.71875 -4.0625 C 3.050781 -6.757812 1.71875 -10.109375 1.71875 -14.109375 Z M 1.71875 -29.546875 "/></g></g><g style="fill:#000000;fill-opacity:1;"><g transform="translate(174.077132, 58.182054)"><path style="stroke:none" d="M 9.71875 -25.03125 C 10.363281 -26.851562 11.445312 -28.128906 12.96875 -28.859375 C 14.457031 -29.578125 16.6875 -29.9375 19.65625 -29.9375 L 19.65625 -21.765625 C 16.757812 -21.765625 14.34375 -20.773438 12.40625 -18.796875 C 10.613281 -17.046875 9.71875 -15.125 9.71875 -13.03125 L 9.71875 0 L 1.71875 0 L 1.71875 -29.421875 L 9.71875 -29.421875 Z M 9.71875 -25.03125 "/></g></g></g></g><path style="fill:none;stroke-width:8;stroke-linecap:butt;stroke-linejoin:miter;stroke:#2a2928;stroke-opacity:1;stroke-miterlimit:4;" d="M 0.000718512 4.000899 L 75.896557 4.000899 " transform="matrix(0.75,0,0,0.75,56.862742,136.952451)"/><path style="fill:none;stroke-width:8;stroke-linecap:butt;stroke-linejoin:miter;stroke:#2a2928;stroke-opacity:1;stroke-miterlimit:4;" d="M 0.00229979 3.999217 L 75.335638 3.999217 " transform="matrix(0,-0.75,0.75,0,107.85215,193.521256)"/><path style="fill:none;stroke-width:8;stroke-linecap:butt;stroke-linejoin:miter;stroke:#2a2928;stroke-opacity:1;stroke-miterlimit:4;" d="M 0.00243137 4.002542 L 75.403478 4.002542 " transform="matrix(-0.75,0,0,-0.75,113.775261,202.619094)"/><path style="fill:none;stroke-width:8;stroke-linecap:butt;stroke-linejoin:miter;stroke:#2a2928;stroke-opacity:1;stroke-miterlimit:4;" d="M -0.00198439 3.998288 L 73.857395 3.998288 " transform="matrix(0,0.75,-0.75,0,62.768247,147.05227)"/><path style="fill:none;stroke-width:8;stroke-linecap:butt;stroke-linejoin:miter;stroke:#2a2928;stroke-opacity:1;stroke-miterlimit:4;" d="M -0.00176765 3.997421 L 90.52428 3.997421 " transform="matrix(0.75,0,0,0.75,42.126326,153.349591)"/><path style="fill:none;stroke-width:3;stroke-linecap:butt;stroke-linejoin:miter;stroke:#2a2928;stroke-opacity:1;stroke-miterlimit:4;" d="M 0.00187831 1.499814 L 43.97584 1.499814 " transform="matrix(0.75,0,0,0.75,68.22906,169.45717)"/><path style="fill:none;stroke-width:3;stroke-linecap:butt;stroke-linejoin:miter;stroke:#2a2928;stroke-opacity:1;stroke-miterlimit:4;" d="M 0.00187831 1.500146 L 43.97584 1.500146 " transform="matrix(0.75,0,0,0.75,68.22906,176.992078)"/><path style="fill:none;stroke-width:3;stroke-linecap:butt;stroke-linejoin:miter;stroke:#2a2928;stroke-opacity:1;stroke-miterlimit:4;" d="M 0.00187831 1.500497 L 43.97584 1.500497 " transform="matrix(0.75,0,0,0.75,68.22906,184.526971)"/><path style="fill:none;stroke-width:10;stroke-linecap:butt;stroke-linejoin:miter;stroke:#2a2928;stroke-opacity:1;stroke-miterlimit:4;" d="M 0.00171499 4.99777 L 83.184012 4.99777 " transform="matrix(0,-0.75,0.75,0,324.661829,202.614567)"/></g></svg>